<?xml version="1.0" standalone="no"?>
<!DOCTYPE svg PUBLIC "-//W3C//DTD SVG 20010904//EN"
 "http://www.w3.org/TR/2001/REC-SVG-20010904/DTD/svg10.dtd">
<svg version="1.0" xmlns="http://www.w3.org/2000/svg"
 width="3000" height="3000" viewBox="0 0 1024.000000 1024.000000"
 preserveAspectRatio="xMidYMid meet">

<g transform="translate(0.000000,1024.000000) scale(0.100000,-0.100000)"
fill="#000000" stroke="none">
<path d="M3170 7775 c-36 -8 -94 -29 -128 -47 -117 -59 -243 -225 -271 -356
-8 -38 -11 -686 -11 -2277 0 -2476 -6 -2281 68 -2358 21 -21 60 -51 87 -65
l50 -27 345 0 345 0 56 26 c59 28 96 67 126 135 17 37 18 130 21 1662 2 1531
3 1622 20 1622 30 0 78 -36 121 -92 62 -81 313 -409 412 -538 48 -63 129 -170
181 -237 51 -67 159 -209 240 -315 82 -106 174 -227 206 -268 32 -41 118 -154
192 -250 171 -223 252 -330 310 -405 98 -126 235 -306 344 -450 63 -82 154
-202 202 -266 49 -63 145 -188 213 -278 68 -90 146 -185 172 -211 90 -90 229
-140 389 -140 231 1 383 88 483 277 72 137 67 -42 67 2393 0 2319 1 2241 -44
2328 -23 45 -84 104 -131 127 -37 19 -62 20 -385 20 -312 0 -350 -2 -399 -19
-68 -23 -131 -85 -157 -152 -18 -47 -19 -99 -22 -1422 l-2 -1373 -32 3 c-33 3
-35 5 -276 317 -31 40 -91 117 -132 170 -42 53 -105 134 -141 181 -36 47 -137
177 -225 290 -88 113 -215 277 -283 365 -69 88 -147 189 -176 225 -28 36 -262
336 -519 667 -257 331 -482 613 -501 627 -46 35 -125 75 -199 99 -53 17 -93
20 -306 23 -187 3 -260 0 -310 -11z"/>
</g>
</svg>
